<mxfile host="app.diagrams.net" modified="2023-05-30T01:22:07.597Z" agent="Mozilla/5.0 (Windows NT 10.0; Win64; x64) AppleWebKit/537.36 (KHTML, like Gecko) Chrome/113.0.0.0 Safari/537.36" version="21.3.5" etag="RPivFs_NtVmUOgVx1DrV" type="github">
  <diagram name="PÃ¡gina-1" id="6iVLxO85B955XPE26ZyW">
    <mxGraphModel>
      <root>
        <mxCell id="0" />
        <mxCell id="1" parent="0" />
      </root>
    </mxGraphModel>
  </diagram>
</mxfile>
